# xmcd
#
# Track frame offsets: 
#        150
#        17142
#        36087
#        52712
#        68350
#        83562
#        107002
#        128410
#        148670
#        169007
#        181597
#
# Disc length: 2558 seconds
#
# Revision: 1
# Processed by: cddbd v1.5.2PL0 Copyright (c) Steve Scherf et al.
# Submitted via: ExactAudioCopyFreeDBPlugin 1.0
#
DISCID=7709fc0b
DTITLE=O.V. Wright - The Complete O.V. Wright on Hi Records
DYEAR=1999
DGENRE=Soul
TTITLE0=We're Still Together
TTITLE1=I Found Peace
TTITLE2=It's Cold Without Your Love
TTITLE3=Baby Baby Baby
TTITLE4=I'm Gonna Stay
TTITLE5=The Hurt is On
TTITLE6=Today I Sing the Blues
TTITLE7=Mirror of My Soul
TTITLE8=Sacrifice
TTITLE9=A Fool Can't See the Light
TTITLE10=I'm Gonna Be a Big Man Someday
EXTD=
EXTT0=
EXTT1=
EXTT2=
EXTT3=
EXTT4=
EXTT5=
EXTT6=
EXTT7=
EXTT8=
EXTT9=
EXTT10=
PLAYORDER=
